<?xml version="1.0" encoding="UTF-8" standalone="no"?>



<svg xmlns="http://www.w3.org/2000/svg" version="1.1" xmlns:xlink="http://www.w3.org/1999/xlink" xmlns:svgjs="http://svgjs.dev/svgjs" width="1500" height="1500" viewBox="0 0 1500 1500"><rect width="1500" height="1500" fill="#ea9937"></rect><g transform="matrix(0.6666666666666666,0,0,0.6666666666666666,250.00007343750008,187.66666666666674)"><svg viewBox="0 0 320 360" data-background-color="#ea9937" preserveAspectRatio="xMidYMid meet" height="1687" width="1500" xmlns="http://www.w3.org/2000/svg" xmlns:xlink="http://www.w3.org/1999/xlink"><g id="tight-bounds" transform="matrix(1,0,0,1,0.000023499999997511622,0)"><svg viewBox="0 0 320 360" height="360" width="320"><g><svg></svg></g><g><svg viewBox="0 0 320 360" height="360" width="320"><g><path transform="translate(-74.99272,-51.79039) scale(4.65793,4.65793)" d="M20.6 59.9l0.8 1-0.4-1.3c-0.1-0.6-0.8 0.1-0.4 0.3M21.5 59.3c0.3 0.5 0.6 1 0.6 1.5 0 0.7 0.6 1 1.1 1.2-0.7-0.8-1.1-3-1.7-2.7M59.9 16.9c1.7 0 3.3-0.2 5.1 0.2 4.4 1.1 8.1 3.3 10.6 6.4l7 11.2c0.3 2.8 0.9 5.9 0.8 9.3 0.7 0 0.6-1 1.4-1.2-0.8 2-1.2 4.5-1.4 7.4-0.5-1.6 0-4 0.1-5.3-0.7 1.1-1.1 0.3-1.1-0.2 0.1-0.8-0.3-0.7-0.6-1-1.1-1-1.8-2.1-2.6-3.8 0.5-1.3 0.6-3.2-1-4.2-0.5-0.3-1.1-0.8-1.4-1.6-0.4-1.1-1.1-2.4-0.9-4.1 0.1-0.5-1.5 1.1-2.4 0.4-3.9-2.7-7.8-5.8-12.5-8.4-2.5 0-4.3-0.9-5.2-2-0.8-1-0.2-2.3 1-2.4 0.7 0 1.5-0.2 2.1 0.2 0.1-0.4 0.5-0.9 1-0.9M50 14.6l0.2 0.1c1 0.2 1.5 1.6 2.6 1.1 0 0.7 0.1 1.4-0.1 1.9-0.3 0.8-1.2 0.8-1.9 0.8-6.7-0.4-10.6 2.4-14.7 4.8-1.1 0.7-2.3 1.2-3.2 2.1-4.3 4-9 7.7-10.1 15.1l-0.9 8.2c-0.1 0.9-1.1 1.8-0.9 2.9l0.7 4.9c-0.7-0.7-1.1 0.2-0.9 0.6 0.1 0.3 0.5 1.3 1.1 0.4 0.8 1.5 1.6 4.4 2.7 5.7 3.4 4 7.8 7.6 11.4 11.2 0.9-0.2 1.6-0.2 1.8-0.8 0.3 0.6-0.3 1.2-0.8 1.3 1.6 1 3.4 1.9 5.8 2.1 3.1 0.2 6 0.7 8.7 1.4 1.4-0.4 2.8-0.6 4.3-0.7 0.5 0 0.8-0.8 1.4-1l0.1-1c0.6 0.9 0.5-0.3 0.1-0.9 0.7 0.6 0.9 1.1 1.2 1.5 0-0.3 0.8-1.4 0.8-0.1l0.2-1.3c0.3-0.2 0.4 1.1 0.7 0.2 0.3-0.9 0.9-0.2 1.5-0.5-0.2 0.4-0.1 1.2 0.6 0.7l0.8-0.7c0.5 1.2 1.3 0.7 1.7 0.5 4.4-2.8 8.8-6.1 13-9.4l-0.1 1.3 0.5-1.6c0.5 0.5 0.9 0.1 1.1-0.2 0.6-1 1.4-2 2.7-2.9-1.6 4.3-3.5 7.7-5.9 10.5l-1 1.2c0 0.7-0.2 1.6-1 1.7-0.4 0.1-1.2-0.2-1.8 0.4-0.3 0.4 0.7 1.2-0.1 0.6-0.7-0.5-1.4 0-2.2 0.2-0.6 0.2 0.4 0.8 0.6 1.2 0.2 0.4 0.4 0.8 0.3 1.3l-1.1-1.2c-1.3 0.7-2.1 2-3.2 3-0.5 0.4-0.3 1.1-0.3 1.7-0.7 0-1.5-0.2-1.9 0.2-0.3 0.4-0.2 1-0.2 1.6-1-0.1-1.1-1.6-2-1.3-0.9 0.2-1.9 0.3-2.7 0.8 0.6 1.2-1 0.5-0.8 0.7-1.5-0.9-2.8-1.6-4.4-1-3.4-1.1-7.6-0.6-10.7-0.2 0-0.5 0.1-1-0.1-1.1-0.2 0.5-0.8 0.3-0.7 0.3-1.9-1.3-3.8-2.1-5.8-3.2-1.8 0.2-3.5-0.7-4-1.2-1.4-1.3-3-0.6-4.3-0.9-2.8-0.7-3.8-3.6-4.1-5.6-0.2-1-1-1.4-1.3-1.3-1.3-4.2-3.3-8-4.9-11.9-0.4-1-0.3-2-0.3-3.1 0.5 0.2 1 0.1 0.9-0.6-0.5-3.3-1.7-5.8-3-8.2 0.7-3.4 0.8-7.4 2.4-10.4 1.4-2.7 4-4.1 5.8-6.4 0.6-0.8 0.6-1.9 1.2-2.6 2-2 4-4.1 6.2-5.9 1-0.8 2.2 0 3.7-0.3 0.5-1.8 2.5-3.4 4.4-2.9 0.8 0.2 2.4-1.9 2.9-2.1 0.8-0.3 0.4 0.8 0.4 1.5 1.9-1.5 4.5-2.3 6.9-3.2" fill="#ea3c12" fill-rule="nonzero" stroke="none" stroke-width="1" stroke-linecap="butt" stroke-linejoin="miter" stroke-miterlimit="10" stroke-dasharray="" stroke-dashoffset="0" font-family="none" font-weight="none" font-size="none" text-anchor="none" style="mix-blend-mode: normal" data-fill-palette-color="tertiary"></path></g><g transform="matrix(1,0,0,1,116.61841502521702,90)"><svg viewBox="0 0 86.76316994956598 180" height="180" width="86.76316994956598"><g><svg viewBox="0 0 86.76316994956598 180" height="180" width="86.76316994956598"><g><svg viewBox="0 0 141.88841201716735 294.3635436318897" height="180" width="86.76316994956598"><g transform="matrix(1,0,0,1,0,114.36354363188968)"><svg viewBox="0 0 141.88841201716735 180" height="180" width="141.88841201716735"><g id="textblocktransform"><svg viewBox="0 0 141.88841201716735 180" height="180" width="141.88841201716735" id="textblock"><g><svg viewBox="0 0 141.88841201716735 180" height="180" width="141.88841201716735"><g transform="matrix(1,0,0,1,0,0)"><svg width="141.88841201716735" viewBox="0 -34.95 27.55 34.95" height="180" data-palette-color="#ea3c12"><path d="M17.85-2.15L27.55-2.15 27.55 0 0 0 0-2.15 5.5-2.15Q3.3-3.15 1.55-5L1.55-5 4.9-9.65Q8.3-6.4 11.55-6.4L11.55-6.4Q13.85-6.4 15.48-7.95 17.1-9.5 17.1-12.6L17.1-12.6 17.1-29.65 6-29.65 6-34.95 23-34.95 23-12.9Q23-5.1 17.85-2.15L17.85-2.15Z" opacity="1" transform="matrix(1,0,0,1,0,0)" fill="#ea3c12" class="wordmark-text-0" data-fill-palette-color="primary" id="text-0"></path></svg></g></svg></g></svg></g></svg></g><g transform="matrix(1,0,0,1,27.100686695278966,0)"><svg viewBox="0 0 87.68703862660942 88.09722363188968" height="88.09722363188968" width="87.68703862660942"><g><svg xmlns="http://www.w3.org/2000/svg" xmlns:xlink="http://www.w3.org/1999/xlink" version="1.1" viewBox="0.5955166200723755 0.37200000000000344 94.81248337992763 95.256" x="0" y="0" height="88.09722363188968" width="87.68703862660942" class="icon-icon-0" data-fill-palette-color="accent" id="icon-0"><path d="M47.924 95.628c-9.252 0-20-7.584-20-17.356v-18.644c0-1.1 0.904-2 2-2 1.1 0 2 0.9 2 2v18.644c0 7.404 8.752 13.356 16 13.356 7.252 0 16-5.952 16-13.356v-18.644c0-1.1 0.904-2 2-2 1.1 0 2 0.9 2 2v18.644c0 9.784-10.748 17.356-20 17.356z" fill="#ffbe79" data-fill-palette-color="accent"></path><path d="M48.056 81.736c-3.608 0-6.544-2.94-6.544-6.564 0-3.616 2.92-6.556 6.544-6.556 3.604 0 6.544 2.936 6.544 6.556-0.004 3.62-2.94 6.564-6.544 6.564zM48.056 72.628c-1.404 0-2.544 1.144-2.544 2.548 0 1.416 1.14 2.56 2.544 2.56s2.544-1.14 2.544-2.56c-0.004-1.404-1.144-2.548-2.544-2.548z" fill="#ffbe79" data-fill-palette-color="accent"></path><path d="M27.82 74.556c-9.084 0-15.896-11.684-15.896-22.124v-17.78c-0.664-1.508-1.416-3.12-2.192-4.828-4-8.696-8.972-19.508-9.136-27.416-0.012-0.532 0.2-1.052 0.572-1.444 0.388-0.38 0.9-0.588 1.428-0.588 9.872 0 28.48 4.94 37.756 14.24 0.772 0.78 0.772 2.056 0 2.836-0.776 0.768-2.04 0.768-2.824-0.012-7.772-7.776-23.392-12.336-32.768-12.984 0.896 6.916 5.132 16.148 8.6 23.704 0.864 1.868 1.68 3.64 2.396 5.264 0.104 0.252 0.168 0.524 0.168 0.8v18.196c0 9.312 5.772 18.116 11.896 18.116 1.1 0 2 0.9 2 2 0 1.12-0.9 2.02-2 2.02z" fill="#ffbe79" data-fill-palette-color="accent"></path><path d="M68.028 74.556c-1.1 0-2-0.904-2-2 0-1.108 0.9-2 2-2 6.116 0 11.9-8.812 11.9-18.124v-18.2c0-0.272 0.068-0.556 0.172-0.8 0.756-1.74 1.64-3.644 2.576-5.648 3.452-7.432 7.656-16.512 8.56-23.328-9.396 0.644-24.992 5.216-32.756 12.988-0.78 0.78-2.048 0.78-2.828 0.004s-0.78-2.052 0-2.832c9.272-9.288 27.892-14.244 37.756-14.244 0.54 0 1.048 0.22 1.416 0.592 0.376 0.392 0.584 0.916 0.584 1.436-0.164 7.804-5.108 18.468-9.084 27.056-0.852 1.832-1.656 3.584-2.376 5.188v17.768c-0.024 10.46-6.82 22.144-15.92 22.144z" fill="#ffbe79" data-fill-palette-color="accent"></path><path d="M61.676 24.856c-1.092 0-2-0.9-2-2 0-1.968-4.524-4.828-11.616-4.828s-11.632 2.86-11.632 4.828c0 1.1-0.904 2-2 2-1.092 0-2-0.9-2-2 0-5.032 6.728-8.828 15.628-8.828 8.908 0 15.616 3.796 15.616 8.828 0.004 1.1-0.888 2-1.996 2z" fill="#ffbe79" data-fill-palette-color="accent"></path><path d="M30.328 36.916c4.032 0 9.852 4.352 9.852 7.976-0.492 0.204-1.052 0.296-1.64 0.296-4.04 0-9.86-4.352-9.86-7.976 0.488-0.2 1.044-0.296 1.648-0.296zM30.328 32.916v0c-1.148 0-2.228 0.204-3.192 0.6-1.488 0.62-2.46 2.088-2.46 3.696 0 6.168 7.804 11.976 13.86 11.976 1.14 0 2.22-0.204 3.184-0.604 1.488-0.62 2.456-2.084 2.456-3.688 0-6.172-7.812-11.98-13.848-11.98v0z" fill="#ffbe79" data-fill-palette-color="accent"></path><path d="M65.792 36.916c0.584 0 1.148 0.088 1.64 0.296 0 3.62-5.82 7.976-9.86 7.976-0.592 0-1.148-0.092-1.64-0.296 0-3.62 5.82-7.976 9.86-7.976zM65.792 32.916c-6.056 0-13.86 5.804-13.86 11.976 0 1.604 0.968 3.068 2.46 3.688 0.956 0.408 2.04 0.604 3.18 0.604 6.056 0 13.86-5.808 13.86-11.976 0-1.604-0.968-3.076-2.452-3.692-0.968-0.396-2.048-0.6-3.188-0.6v0z" fill="#ffbe79" data-fill-palette-color="accent"></path></svg></g></svg></g><g></g></svg></g></svg></g></svg></g></svg></g><defs></defs></svg><rect width="320" height="360" fill="none" stroke="none" visibility="hidden">
</rect></g></svg></g></svg>

